<?xml version="1.0" encoding="UTF-8"?>
<!DOCTYPE svg PUBLIC "-//W3C//DTD SVG 1.1//EN" "http://www.w3.org/Graphics/SVG/1.1/DTD/svg11.dtd">
<svg version="1.1" xmlns="http://www.w3.org/2000/svg" xmlns:xlink="http://www.w3.org/1999/xlink" x="0" y="0" width="228" height="104" viewBox="0, 0, 228, 104">
  <g id="Background">
    <rect x="0" y="0" width="228" height="104" fill="#FFFFFF"/>
  </g>
  <g id="Name" transform="scale(1,-1) translate(0,-104)">
    <path d="M 63.4401,74 L 63.4401,82.211 L 67.4742,82.211 L 67.4028,81.3899 L 64.4754,81.3899 L 64.4754,78.3554 L 67.1767,78.3554 L 67.1767,77.5343 L 64.4754,77.5343 L 64.4754,74 L 63.4401,74 z
M 72.1271,77.7842 C 72.1271,77.5383 72.1192,77.3261 72.1033,77.1476 C 72.0874,76.9691 72.0716,76.8124 72.0557,76.6775 L 69.1402,76.6775 C 69.1719,76.0032 69.3167,75.5073 69.5746,75.19 C 69.8324,74.8727 70.2033,74.714 70.6872,74.714 C 70.8538,74.714 71.0045,74.7338 71.1394,74.7735 C 71.2743,74.8132 71.3913,74.8608 71.4905,74.9163 C 71.5896,74.9718 71.6729,75.0274 71.7404,75.0829 C 71.8078,75.1384 71.8574,75.1821 71.8891,75.2138 L 72.2461,74.5355 C 72.2064,74.4958 72.1469,74.4383 72.0676,74.363 C 71.9883,74.2876 71.8812,74.2122 71.7463,74.1368 C 71.6114,74.0615 71.4448,73.996 71.2465,73.9405 C 71.0482,73.885 70.8141,73.8572 70.5444,73.8572 C 70.1874,73.8572 69.8641,73.9167 69.5746,74.0357 C 69.285,74.1547 69.0391,74.3392 68.8368,74.5891 C 68.6345,74.839 68.4778,75.1563 68.3667,75.5411 C 68.2556,75.9258 68.2001,76.3879 68.2001,76.9274 C 68.2001,77.4351 68.2576,77.8735 68.3727,78.2424 C 68.4877,78.6113 68.6444,78.9147 68.8427,79.1527 C 69.041,79.3907 69.2711,79.5672 69.5329,79.6823 C 69.7947,79.7973 70.0763,79.8548 70.3778,79.8548 C 70.9252,79.8548 71.3536,79.6823 71.663,79.3372 C 71.9724,78.9921 72.1271,78.4744 72.1271,77.7842 z
M 70.3183,79.0694 C 69.9772,79.0694 69.7035,78.9266 69.4972,78.641 C 69.2909,78.3554 69.1719,77.9429 69.1402,77.4034 L 71.2227,77.4034 C 71.2306,77.4431 71.2366,77.5006 71.2406,77.576 C 71.2445,77.6513 71.2465,77.7326 71.2465,77.8199 C 71.2465,78.2166 71.1672,78.524 71.0085,78.7422 C 70.8498,78.9603 70.6198,79.0694 70.3183,79.0694 z
M 73.1505,76.7727 C 73.1505,77.3518 73.2259,77.8358 73.3766,78.2245 C 73.5273,78.6132 73.7217,78.9266 73.9597,79.1646 C 74.1977,79.4026 74.4674,79.5712 74.7689,79.6704 C 75.0704,79.7695 75.3718,79.8191 75.6733,79.8191 C 75.8558,79.8191 76.0144,79.8052 76.1493,79.7774 C 76.2842,79.7497 76.3952,79.716 76.4825,79.6763 L 76.4825,82.4133 L 77.4464,82.5204 L 77.4464,74 L 76.5658,74 L 76.5658,74.6069 L 76.542,74.6069 C 76.5182,74.5593 76.4746,74.4939 76.4111,74.4106 C 76.3476,74.3273 76.2604,74.244 76.1493,74.1607 C 76.0382,74.0774 75.8994,74.006 75.7328,73.9464 C 75.5662,73.8869 75.3718,73.8572 75.1497,73.8572 C 74.88,73.8572 74.6241,73.9107 74.3822,74.0179 C 74.1402,74.125 73.928,74.2955 73.7455,74.5296 C 73.563,74.7636 73.4183,75.0651 73.3112,75.434 C 73.2041,75.8029 73.1505,76.2491 73.1505,76.7727 z
M 75.4115,74.714 C 75.5622,74.714 75.6971,74.7338 75.8161,74.7735 C 75.9351,74.8132 76.0382,74.8628 76.1255,74.9223 C 76.2128,74.9818 76.2862,75.0432 76.3457,75.1067 C 76.4052,75.1702 76.4508,75.2257 76.4825,75.2733 L 76.4825,78.7957 C 76.3952,78.8512 76.2941,78.8988 76.1791,78.9385 C 76.064,78.9782 75.9192,78.998 75.7447,78.998 C 75.5226,78.998 75.3143,78.9603 75.12,78.885 C 74.9256,78.8096 74.757,78.6846 74.6142,78.5101 C 74.4714,78.3356 74.3584,78.1095 74.2751,77.8318 C 74.1918,77.5541 74.1501,77.213 74.1501,76.8084 C 74.1501,76.4117 74.1838,76.0805 74.2513,75.8148 C 74.3187,75.549 74.4119,75.3348 74.5309,75.1722 C 74.6499,75.0095 74.7848,74.8925 74.9355,74.8211 C 75.0862,74.7497 75.2449,74.714 75.4115,74.714 z
M 82.5872,77.7842 C 82.5872,77.5383 82.5793,77.3261 82.5634,77.1476 C 82.5475,76.9691 82.5317,76.8124 82.5158,76.6775 L 79.6003,76.6775 C 79.632,76.0032 79.7768,75.5073 80.0347,75.19 C 80.2925,74.8727 80.6634,74.714 81.1473,74.714 C 81.3139,74.714 81.4646,74.7338 81.5995,74.7735 C 81.7344,74.8132 81.8514,74.8608 81.9506,74.9163 C 82.0497,74.9718 82.133,75.0274 82.2005,75.0829 C 82.2679,75.1384 82.3175,75.1821 82.3492,75.2138 L 82.7062,74.5355 C 82.6665,74.4958 82.607,74.4383 82.5277,74.363 C 82.4484,74.2876 82.3413,74.2122 82.2064,74.1368 C 82.0715,74.0615 81.9049,73.996 81.7066,73.9405 C 81.5083,73.885 81.2742,73.8572 81.0045,73.8572 C 80.6475,73.8572 80.3242,73.9167 80.0347,74.0357 C 79.7451,74.1547 79.4992,74.3392 79.2969,74.5891 C 79.0946,74.839 78.9379,75.1563 78.8268,75.5411 C 78.7157,75.9258 78.6602,76.3879 78.6602,76.9274 C 78.6602,77.4351 78.7177,77.8735 78.8328,78.2424 C 78.9478,78.6113 79.1045,78.9147 79.3028,79.1527 C 79.5011,79.3907 79.7312,79.5672 79.993,79.6823 C 80.2548,79.7973 80.5364,79.8548 80.8379,79.8548 C 81.3853,79.8548 81.8137,79.6823 82.1231,79.3372 C 82.4325,78.9921 82.5872,78.4744 82.5872,77.7842 z
M 80.7784,79.0694 C 80.4373,79.0694 80.1636,78.9266 79.9573,78.641 C 79.751,78.3554 79.632,77.9429 79.6003,77.4034 L 81.6828,77.4034 C 81.6907,77.4431 81.6967,77.5006 81.7007,77.576 C 81.7046,77.6513 81.7066,77.7326 81.7066,77.8199 C 81.7066,78.2166 81.6273,78.524 81.4686,78.7422 C 81.3099,78.9603 81.0799,79.0694 80.7784,79.0694 z
M 86.3833,78.8671 C 86.3595,78.883 86.3079,78.9028 86.2286,78.9266 C 86.1493,78.9504 86.0422,78.9623 85.9073,78.9623 C 85.6058,78.9623 85.3698,78.881 85.1993,78.7184 C 85.0287,78.5557 84.9077,78.3792 84.8363,78.1888 L 84.8363,74 L 83.8724,74 L 83.8724,79.712 L 84.753,79.712 L 84.753,78.9385 L 84.7768,78.9385 C 84.8165,79.0496 84.868,79.1587 84.9315,79.2658 C 84.995,79.3729 85.0743,79.4681 85.1695,79.5514 C 85.2647,79.6347 85.3777,79.7001 85.5086,79.7477 C 85.6396,79.7953 85.7962,79.8191 85.9787,79.8191 C 86.1136,79.8191 86.2227,79.8072 86.306,79.7834 C 86.3893,79.7596 86.4547,79.7398 86.5023,79.7239 L 86.3833,78.8671 z
M 86.9426,75.4518 C 86.9426,75.785 87.0061,76.0627 87.133,76.2848 C 87.2599,76.5069 87.4305,76.6874 87.6447,76.8263 C 87.8589,76.9651 88.1108,77.0643 88.4004,77.1238 C 88.6899,77.1833 88.9973,77.213 89.3226,77.213 L 89.6201,77.213 L 89.6201,77.7604 C 89.6201,78.2443 89.5348,78.5775 89.3643,78.76 C 89.1937,78.9425 88.9537,79.0337 88.6443,79.0337 C 88.3587,79.0337 88.1207,78.9722 87.9303,78.8493 C 87.7399,78.7263 87.5892,78.6172 87.4781,78.522 L 87.0735,79.1646 C 87.137,79.2281 87.2183,79.2995 87.3175,79.3788 C 87.4166,79.4581 87.5376,79.5335 87.6804,79.6049 C 87.8232,79.6763 87.9858,79.7358 88.1683,79.7834 C 88.3508,79.831 88.557,79.8548 88.7871,79.8548 C 89.3742,79.8548 89.8184,79.6922 90.1199,79.3669 C 90.4214,79.0416 90.5721,78.518 90.5721,77.7961 L 90.5721,75.19 C 90.5721,74.9441 90.58,74.7041 90.5959,74.4701 C 90.6118,74.236 90.6276,74.0793 90.6435,74 L 89.7272,74 L 89.6915,74.6307 L 89.6677,74.6307 C 89.636,74.5593 89.5884,74.478 89.5249,74.3868 C 89.4614,74.2955 89.3821,74.2122 89.2869,74.1368 C 89.1917,74.0615 89.0767,73.996 88.9418,73.9405 C 88.8069,73.885 88.6483,73.8572 88.4658,73.8572 C 88.2516,73.8572 88.0513,73.8969 87.8649,73.9762 C 87.6784,74.0555 87.5158,74.1666 87.377,74.3094 C 87.2381,74.4522 87.131,74.6208 87.0557,74.8152 C 86.9803,75.0095 86.9426,75.2217 86.9426,75.4518 z
M 88.6681,74.6783 C 88.803,74.6783 88.922,74.6981 89.0251,74.7378 C 89.1282,74.7775 89.2175,74.8251 89.2929,74.8806 C 89.3682,74.9361 89.4317,74.9976 89.4833,75.0651 C 89.5348,75.1325 89.5804,75.19 89.6201,75.2376 L 89.6201,76.499 L 89.3107,76.4871 C 88.8506,76.4712 88.5015,76.3919 88.2635,76.2491 C 88.0255,76.1063 87.9065,75.8762 87.9065,75.5589 C 87.9065,75.2654 87.9739,75.0452 88.1088,74.8985 C 88.2437,74.7517 88.4301,74.6783 88.6681,74.6783 z
M 92.9759,75.3328 C 92.9759,75.0948 93.0096,74.9282 93.0771,74.833 C 93.1445,74.7378 93.2615,74.6902 93.4281,74.6902 C 93.5154,74.6902 93.5888,74.6981 93.6483,74.714 C 93.7078,74.7299 93.7534,74.7457 93.7851,74.7616 L 93.8684,74.0476 C 93.8208,74.0238 93.7335,73.9921 93.6066,73.9524 C 93.4797,73.9127 93.3091,73.8929 93.0949,73.8929 C 92.7696,73.8929 92.5078,73.9921 92.3095,74.1904 C 92.1112,74.3887 92.012,74.7418 92.012,75.2495 L 92.012,82.4133 L 92.9759,82.5204 L 92.9759,75.3328 z
M 104.3047,82.211 L 104.3047,74 L 103.3051,74 L 103.3051,77.9032 C 103.3051,78.1491 103.3051,78.3911 103.3051,78.6291 C 103.3051,78.8671 103.3071,79.0892 103.3111,79.2955 C 103.315,79.5018 103.321,79.6842 103.3289,79.8429 C 103.3368,80.0016 103.3448,80.1245 103.3527,80.2118 L 103.317,80.2118 C 103.2773,80.0293 103.196,79.7338 103.0731,79.3253 C 102.9501,78.9167 102.8093,78.4784 102.6506,78.0103 L 101.294,74 L 100.4729,74 L 99.1163,78.0103 C 98.9576,78.4784 98.8168,78.9167 98.6939,79.3253 C 98.5709,79.7338 98.4896,80.0293 98.4499,80.2118 L 98.4142,80.2118 C 98.4221,80.1166 98.4301,79.9897 98.438,79.831 C 98.4459,79.6723 98.4519,79.4919 98.4559,79.2896 C 98.4598,79.0873 98.4618,78.8671 98.4618,78.6291 C 98.4618,78.3911 98.4618,78.1491 98.4618,77.9032 L 98.4618,74 L 97.4622,74 L 97.4622,82.211 L 98.6165,82.211 L 100.5562,76.5466 C 100.6435,76.2848 100.7208,76.029 100.7883,75.7791 C 100.8557,75.5292 100.8973,75.313 100.9132,75.1305 L 100.937,75.1305 C 100.9449,75.313 100.9826,75.5272 101.0501,75.7731 C 101.1175,76.019 101.1948,76.2729 101.2821,76.5347 L 103.2218,82.211 L 104.3047,82.211 z
M 106.9465,74 L 105.9826,74 L 105.9826,79.712 L 106.9465,79.712 L 106.9465,74 z
M 106.4705,81.0924 C 106.2722,81.0924 106.1135,81.1559 105.9945,81.2828 C 105.8755,81.4097 105.816,81.5763 105.816,81.7826 C 105.816,81.9809 105.8755,82.1436 105.9945,82.2705 C 106.1135,82.3974 106.2722,82.4609 106.4705,82.4609 C 106.6609,82.4609 106.8156,82.3974 106.9346,82.2705 C 107.0536,82.1436 107.1131,81.9809 107.1131,81.7826 C 107.1131,81.5763 107.0536,81.4097 106.9346,81.2828 C 106.8156,81.1559 106.6609,81.0924 106.4705,81.0924 z
M 111.5399,74 L 111.5399,77.6771 C 111.5399,78.161 111.4586,78.5081 111.296,78.7184 C 111.1333,78.9286 110.8854,79.0337 110.5522,79.0337 C 110.2666,79.0337 110.0286,78.9623 109.8382,78.8195 C 109.6478,78.6767 109.4971,78.5379 109.386,78.403 L 109.386,74 L 108.4221,74 L 108.4221,79.712 L 109.3027,79.712 L 109.3027,79.0694 L 109.3265,79.0694 C 109.3503,79.117 109.4019,79.1864 109.4812,79.2777 C 109.5605,79.3689 109.6637,79.4562 109.7906,79.5395 C 109.9175,79.6228 110.0683,79.6961 110.2428,79.7596 C 110.4173,79.8231 110.6157,79.8548 110.8378,79.8548 C 111.0917,79.8548 111.3217,79.8171 111.528,79.7418 C 111.7343,79.6664 111.9088,79.5454 112.0516,79.3788 C 112.1944,79.2122 112.3055,78.996 112.3848,78.7303 C 112.4641,78.4645 112.5038,78.1372 112.5038,77.7485 L 112.5038,74 L 111.5399,74 z
M 114.9076,74 L 113.9437,74 L 113.9437,79.712 L 114.9076,79.712 L 114.9076,74 z
M 114.4316,81.0924 C 114.2333,81.0924 114.0746,81.1559 113.9556,81.2828 C 113.8366,81.4097 113.7771,81.5763 113.7771,81.7826 C 113.7771,81.9809 113.8366,82.1436 113.9556,82.2705 C 114.0746,82.3974 114.2333,82.4609 114.4316,82.4609 C 114.622,82.4609 114.7767,82.3974 114.8957,82.2705 C 115.0147,82.1436 115.0742,81.9809 115.0742,81.7826 C 115.0742,81.5763 115.0147,81.4097 114.8957,81.2828 C 114.7767,81.1559 114.622,81.0924 114.4316,81.0924 z
M 118.8465,78.5577 C 118.783,78.6291 118.668,78.7263 118.5014,78.8493 C 118.3348,78.9722 118.1166,79.0337 117.8469,79.0337 C 117.593,79.0337 117.3987,78.9742 117.2638,78.8552 C 117.1289,78.7362 117.0615,78.5934 117.0615,78.4268 C 117.0615,78.2126 117.123,78.0361 117.246,77.8973 C 117.3689,77.7584 117.5573,77.6097 117.8112,77.451 L 118.1682,77.2368 C 118.5569,77.0067 118.8624,76.7588 119.0845,76.4931 C 119.3066,76.2273 119.4177,75.8842 119.4177,75.4637 C 119.4177,75.0115 119.261,74.6307 118.9477,74.3213 C 118.6343,74.0119 118.1841,73.8572 117.597,73.8572 C 117.3669,73.8572 117.1646,73.881 116.9901,73.9286 C 116.8156,73.9762 116.6628,74.0317 116.532,74.0952 C 116.4011,74.1587 116.292,74.2281 116.2047,74.3034 C 116.1174,74.3788 116.046,74.4482 115.9905,74.5117 L 116.4546,75.2733 C 116.5022,75.2257 116.5597,75.1702 116.6272,75.1067 C 116.6946,75.0432 116.7759,74.9818 116.8711,74.9223 C 116.9663,74.8628 117.0734,74.8132 117.1924,74.7735 C 117.3114,74.7338 117.4502,74.714 117.6089,74.714 C 117.8945,74.714 118.1127,74.7775 118.2634,74.9044 C 118.4141,75.0313 118.4895,75.186 118.4895,75.3685 C 118.4895,75.5034 118.4717,75.6204 118.436,75.7196 C 118.4003,75.8187 118.3467,75.908 118.2753,75.9873 C 118.2039,76.0666 118.1166,76.142 118.0135,76.2134 C 117.9104,76.2848 117.7914,76.3641 117.6565,76.4514 L 117.2995,76.6775 C 116.9425,76.9076 116.6628,77.1495 116.4606,77.4034 C 116.2583,77.6573 116.1571,77.9825 116.1571,78.3792 C 116.1571,78.5934 116.1988,78.7898 116.2821,78.9683 C 116.3654,79.1467 116.4824,79.3014 116.6331,79.4324 C 116.7838,79.5633 116.9604,79.6664 117.1627,79.7418 C 117.365,79.8171 117.5811,79.8548 117.8112,79.8548 C 118.0333,79.8548 118.2237,79.833 118.3824,79.7894 C 118.5411,79.7457 118.6779,79.6902 118.793,79.6228 C 118.908,79.5553 119.0032,79.4879 119.0786,79.4205 C 119.1539,79.353 119.2154,79.2955 119.263,79.2479 L 118.8465,78.5577 z
M 122.9877,78.9266 L 121.7382,78.9266 L 121.7382,75.7612 C 121.7382,75.3566 121.7898,75.0809 121.8929,74.9342 C 121.996,74.7874 122.1706,74.714 122.4165,74.714 C 122.5593,74.714 122.6823,74.7338 122.7854,74.7735 C 122.8885,74.8132 122.9639,74.8489 123.0115,74.8806 L 123.1424,74.1071 C 123.1027,74.0754 123.0075,74.0258 122.8568,73.9583 C 122.7061,73.8909 122.5038,73.8572 122.2499,73.8572 C 121.758,73.8572 121.3891,73.994 121.1432,74.2678 C 120.8973,74.5414 120.7743,74.9956 120.7743,75.6303 L 120.7743,78.9266 L 120.0841,78.9266 L 120.0841,79.5692 L 120.7743,79.712 L 120.8814,81.3066 L 121.7382,81.3066 L 121.7382,79.712 L 123.1067,79.712 L 122.9877,78.9266 z
M 126.5934,78.8671 C 126.5696,78.883 126.518,78.9028 126.4387,78.9266 C 126.3594,78.9504 126.2523,78.9623 126.1174,78.9623 C 125.8159,78.9623 125.5799,78.881 125.4094,78.7184 C 125.2388,78.5557 125.1178,78.3792 125.0464,78.1888 L 125.0464,74 L 124.0825,74 L 124.0825,79.712 L 124.9631,79.712 L 124.9631,78.9385 L 124.9869,78.9385 C 125.0266,79.0496 125.0781,79.1587 125.1416,79.2658 C 125.2051,79.3729 125.2844,79.4681 125.3796,79.5514 C 125.4748,79.6347 125.5878,79.7001 125.7187,79.7477 C 125.8497,79.7953 126.0063,79.8191 126.1888,79.8191 C 126.3237,79.8191 126.4328,79.8072 126.5161,79.7834 C 126.5994,79.7596 126.6648,79.7398 126.7124,79.7239 L 126.5934,78.8671 z
M 131.3534,79.712 L 129.5684,73.6668 C 129.3621,72.9687 129.1103,72.4411 128.8127,72.0841 C 128.5153,71.7271 128.0849,71.5486 127.5216,71.5486 C 127.4026,71.5486 127.3034,71.5625 127.2241,71.5902 C 127.1448,71.618 127.0892,71.6398 127.0575,71.6557 L 127.0575,72.4887 C 127.0972,72.4728 127.1487,72.455 127.2122,72.4351 C 127.2757,72.4153 127.359,72.4054 127.4621,72.4054 C 127.8032,72.4054 128.0631,72.5125 128.2416,72.7267 C 128.4201,72.9409 128.5728,73.2701 128.6997,73.7144 L 128.783,74.0119 L 126.9385,79.712 L 127.9738,79.712 L 128.8663,76.5466 C 128.9536,76.2213 129.0329,75.9179 129.1043,75.6363 C 129.1757,75.3546 129.2193,75.1027 129.2352,74.8806 L 129.259,74.8806 C 129.2749,75.1027 129.3126,75.3526 129.3721,75.6303 C 129.4316,75.908 129.5049,76.2094 129.5922,76.5347 L 130.4014,79.712 L 131.3534,79.712 z
M 62.976,64.856 C 62.976,65.3796 63.0375,65.8318 63.1605,66.2126 C 63.2834,66.5934 63.45,66.9048 63.6603,67.1467 C 63.8705,67.3887 64.1125,67.5672 64.3862,67.6823 C 64.6599,67.7973 64.9514,67.8548 65.2608,67.8548 C 65.5781,67.8548 65.8717,67.7973 66.1414,67.6823 C 66.4111,67.5672 66.6452,67.3887 66.8435,67.1467 C 67.0418,66.9048 67.1985,66.5934 67.3136,66.2126 C 67.4286,65.8318 67.4861,65.3796 67.4861,64.856 C 67.4861,64.3245 67.4266,63.8683 67.3076,63.4875 C 67.1886,63.1067 67.024,62.7953 66.8138,62.5534 C 66.6035,62.3114 66.3596,62.1349 66.0819,62.0238 C 65.8042,61.9127 65.5107,61.8572 65.2013,61.8572 C 64.884,61.8572 64.5904,61.9127 64.3207,62.0238 C 64.051,62.1349 63.8169,62.3114 63.6186,62.5534 C 63.4203,62.7953 63.2636,63.1047 63.1486,63.4816 C 63.0335,63.8584 62.976,64.3165 62.976,64.856 z
M 66.4865,64.856 C 66.4865,65.6176 66.3754,66.171 66.1533,66.516 C 65.9312,66.8612 65.6218,67.0337 65.2251,67.0337 C 64.8284,67.0337 64.521,66.8612 64.3029,66.516 C 64.0847,66.171 63.9756,65.6176 63.9756,64.856 C 63.9756,64.0944 64.0867,63.547 64.3088,63.2138 C 64.5309,62.8806 64.8403,62.714 65.237,62.714 C 65.6337,62.714 65.9411,62.8806 66.1593,63.2138 C 66.3774,63.547 66.4865,64.0944 66.4865,64.856 z
M 71.0323,66.9266 L 69.8661,66.9266 L 69.8661,62 L 68.9022,62 L 68.9022,66.9266 L 68.212,66.9266 L 68.212,67.5692 L 68.9022,67.7001 L 68.9022,68.8425 C 68.9022,69.1519 68.9458,69.4177 69.0331,69.6398 C 69.1204,69.8619 69.2354,70.0444 69.3782,70.1872 C 69.521,70.33 69.6876,70.4331 69.878,70.4966 C 70.0684,70.5601 70.2707,70.5918 70.4849,70.5918 C 70.6912,70.5918 70.8657,70.564 71.0085,70.5085 C 71.1513,70.453 71.2465,70.4093 71.2941,70.3776 L 71.0918,69.5803 C 71.0442,69.612 70.9768,69.6458 70.8895,69.6815 C 70.8022,69.7172 70.6951,69.735 70.5682,69.735 C 70.3381,69.735 70.1636,69.6636 70.0446,69.5208 C 69.9256,69.378 69.8661,69.1162 69.8661,68.7354 L 69.8661,67.712 L 71.1513,67.712 L 71.0323,66.9266 z
M 75.9708,63.8445 C 75.9708,63.4875 75.9272,63.1841 75.8399,62.9342 C 75.7526,62.6843 75.6317,62.482 75.477,62.3273 C 75.3223,62.1726 75.1338,62.0615 74.9117,61.994 C 74.6896,61.9266 74.4436,61.8929 74.1739,61.8929 C 73.9756,61.8929 73.8169,61.9147 73.6979,61.9583 C 73.5789,62.002 73.4916,62.0397 73.4361,62.0714 L 73.6027,62.9282 C 73.6503,62.8965 73.7158,62.8647 73.7991,62.833 C 73.8824,62.8013 73.9914,62.7854 74.1263,62.7854 C 74.396,62.7854 74.5983,62.8687 74.7332,63.0353 C 74.8681,63.2019 74.9355,63.5073 74.9355,63.9516 L 74.9355,70.211 L 75.9708,70.211 L 75.9708,63.8445 z
M 81.5995,62 L 80.7189,62 L 80.7189,62.6426 L 80.6951,62.6426 C 80.6713,62.595 80.6197,62.5256 80.5404,62.4344 C 80.4611,62.3431 80.3599,62.2559 80.237,62.1726 C 80.114,62.0893 79.9652,62.0159 79.7907,61.9524 C 79.6162,61.8889 79.4218,61.8572 79.2076,61.8572 C 78.9537,61.8572 78.7257,61.8949 78.5234,61.9702 C 78.3211,62.0456 78.1485,62.1666 78.0057,62.3332 C 77.8629,62.4998 77.7538,62.716 77.6785,62.9818 C 77.6031,63.2475 77.5654,63.5748 77.5654,63.9635 L 77.5654,67.712 L 78.5293,67.712 L 78.5293,64.0349 C 78.5293,63.5589 78.6067,63.2198 78.7614,63.0174 C 78.9161,62.8152 79.156,62.714 79.4813,62.714 C 79.759,62.714 79.993,62.7834 80.1834,62.9223 C 80.3738,63.0611 80.5245,63.1979 80.6356,63.3328 L 80.6356,67.712 L 81.5995,67.712 L 81.5995,62 z
M 85.5384,66.5577 C 85.4749,66.6291 85.3599,66.7263 85.1933,66.8493 C 85.0267,66.9722 84.8085,67.0337 84.5388,67.0337 C 84.2849,67.0337 84.0906,66.9742 83.9557,66.8552 C 83.8208,66.7362 83.7534,66.5934 83.7534,66.4268 C 83.7534,66.2126 83.8149,66.0361 83.9379,65.8973 C 84.0608,65.7584 84.2492,65.6097 84.5031,65.451 L 84.8601,65.2368 C 85.2488,65.0067 85.5543,64.7588 85.7764,64.4931 C 85.9985,64.2273 86.1096,63.8842 86.1096,63.4637 C 86.1096,63.0115 85.9529,62.6307 85.6396,62.3213 C 85.3262,62.0119 84.876,61.8572 84.2889,61.8572 C 84.0588,61.8572 83.8565,61.881 83.682,61.9286 C 83.5075,61.9762 83.3547,62.0317 83.2239,62.0952 C 83.093,62.1587 82.9839,62.2281 82.8966,62.3034 C 82.8093,62.3788 82.7379,62.4482 82.6824,62.5117 L 83.1465,63.2733 C 83.1941,63.2257 83.2516,63.1702 83.3191,63.1067 C 83.3865,63.0432 83.4678,62.9818 83.563,62.9223 C 83.6582,62.8628 83.7653,62.8132 83.8843,62.7735 C 84.0033,62.7338 84.1421,62.714 84.3008,62.714 C 84.5864,62.714 84.8046,62.7775 84.9553,62.9044 C 85.106,63.0313 85.1814,63.186 85.1814,63.3685 C 85.1814,63.5034 85.1636,63.6204 85.1279,63.7196 C 85.0922,63.8187 85.0386,63.908 84.9672,63.9873 C 84.8958,64.0666 84.8085,64.142 84.7054,64.2134 C 84.6023,64.2848 84.4833,64.3641 84.3484,64.4514 L 83.9914,64.6775 C 83.6344,64.9076 83.3547,65.1495 83.1525,65.4034 C 82.9502,65.6573 82.849,65.9825 82.849,66.3792 C 82.849,66.5934 82.8907,66.7898 82.974,66.9683 C 83.0573,67.1467 83.1743,67.3014 83.325,67.4324 C 83.4757,67.5633 83.6523,67.6664 83.8546,67.7418 C 84.0569,67.8171 84.273,67.8548 84.5031,67.8548 C 84.7252,67.8548 84.9156,67.833 85.0743,67.7894 C 85.233,67.7457 85.3698,67.6902 85.4849,67.6228 C 85.5999,67.5553 85.6951,67.4879 85.7705,67.4205 C 85.8458,67.353 85.9073,67.2955 85.9549,67.2479 L 85.5384,66.5577 z
M 89.6796,66.9266 L 88.4301,66.9266 L 88.4301,63.7612 C 88.4301,63.3566 88.4817,63.0809 88.5848,62.9342 C 88.6879,62.7874 88.8625,62.714 89.1084,62.714 C 89.2512,62.714 89.3742,62.7338 89.4773,62.7735 C 89.5804,62.8132 89.6558,62.8489 89.7034,62.8806 L 89.8343,62.1071 C 89.7946,62.0754 89.6994,62.0258 89.5487,61.9583 C 89.398,61.8909 89.1957,61.8572 88.9418,61.8572 C 88.4499,61.8572 88.081,61.994 87.8351,62.2678 C 87.5892,62.5414 87.4662,62.9956 87.4662,63.6303 L 87.4662,66.9266 L 86.776,66.9266 L 86.776,67.5692 L 87.4662,67.712 L 87.5733,69.3066 L 88.4301,69.3066 L 88.4301,67.712 L 89.7986,67.712 L 89.6796,66.9266 z
M 91.7383,62 L 90.7744,62 L 90.7744,67.712 L 91.7383,67.712 L 91.7383,62 z
M 91.2623,69.0924 C 91.064,69.0924 90.9053,69.1559 90.7863,69.2828 C 90.6673,69.4097 90.6078,69.5763 90.6078,69.7826 C 90.6078,69.9809 90.6673,70.1436 90.7863,70.2705 C 90.9053,70.3974 91.064,70.4609 91.2623,70.4609 C 91.4527,70.4609 91.6074,70.3974 91.7264,70.2705 C 91.8454,70.1436 91.9049,69.9809 91.9049,69.7826 C 91.9049,69.5763 91.8454,69.4097 91.7264,69.2828 C 91.6074,69.1559 91.4527,69.0924 91.2623,69.0924 z
M 96.3912,66.6053 C 96.3674,66.6291 96.3297,66.6648 96.2782,66.7124 C 96.2266,66.76 96.1611,66.8076 96.0818,66.8552 C 96.0025,66.9028 95.9073,66.9445 95.7962,66.9802 C 95.6851,67.0159 95.5582,67.0337 95.4154,67.0337 C 95.2091,67.0337 95.0168,66.996 94.8383,66.9207 C 94.6598,66.8453 94.5051,66.7243 94.3742,66.5577 C 94.2433,66.3911 94.1401,66.1749 94.0648,65.9092 C 93.9894,65.6434 93.9517,65.3201 93.9517,64.9393 C 93.9517,64.5188 93.9854,64.1658 94.0529,63.8802 C 94.1203,63.5946 94.2135,63.3665 94.3325,63.196 C 94.4515,63.0254 94.5963,62.9024 94.7669,62.8271 C 94.9374,62.7517 95.1258,62.714 95.3321,62.714 C 95.6256,62.714 95.8498,62.7656 96.0045,62.8687 C 96.1592,62.9718 96.2682,63.0551 96.3317,63.1186 L 96.7244,62.4522 C 96.6847,62.4046 96.6272,62.3471 96.5519,62.2797 C 96.4765,62.2122 96.3793,62.1468 96.2603,62.0833 C 96.1413,62.0198 95.9965,61.9663 95.826,61.9226 C 95.6554,61.879 95.459,61.8572 95.2369,61.8572 C 94.9196,61.8572 94.6221,61.9088 94.3444,62.0119 C 94.0667,62.115 93.8248,62.2856 93.6185,62.5236 C 93.4122,62.7616 93.2496,63.071 93.1306,63.4518 C 93.0116,63.8326 92.9521,64.3046 92.9521,64.8679 C 92.9521,65.4153 93.0235,65.8794 93.1663,66.2602 C 93.3091,66.641 93.4955,66.9484 93.7256,67.1825 C 93.9557,67.4165 94.2115,67.5871 94.4932,67.6942 C 94.7748,67.8013 95.0584,67.8548 95.344,67.8548 C 95.5582,67.8548 95.7466,67.835 95.9093,67.7953 C 96.0719,67.7556 96.2107,67.7061 96.3258,67.6466 C 96.4408,67.5871 96.536,67.5236 96.6114,67.4562 C 96.6867,67.3887 96.7482,67.3312 96.7958,67.2836 L 96.3912,66.6053 z
M 101.3773,65.7842 C 101.3773,65.5383 101.3694,65.3261 101.3535,65.1476 C 101.3376,64.9691 101.3218,64.8124 101.3059,64.6775 L 98.3904,64.6775 C 98.4221,64.0032 98.5669,63.5073 98.8248,63.19 C 99.0826,62.8727 99.4535,62.714 99.9374,62.714 C 100.104,62.714 100.2547,62.7338 100.3896,62.7735 C 100.5245,62.8132 100.6415,62.8608 100.7407,62.9163 C 100.8398,62.9718 100.9231,63.0274 100.9906,63.0829 C 101.058,63.1384 101.1076,63.1821 101.1393,63.2138 L 101.4963,62.5355 C 101.4566,62.4958 101.3971,62.4383 101.3178,62.363 C 101.2385,62.2876 101.1314,62.2122 100.9965,62.1368 C 100.8616,62.0615 100.695,61.996 100.4967,61.9405 C 100.2984,61.885 100.0643,61.8572 99.7946,61.8572 C 99.4376,61.8572 99.1143,61.9167 98.8248,62.0357 C 98.5352,62.1547 98.2893,62.3392 98.087,62.5891 C 97.8847,62.839 97.728,63.1563 97.6169,63.5411 C 97.5058,63.9258 97.4503,64.3879 97.4503,64.9274 C 97.4503,65.4351 97.5078,65.8735 97.6229,66.2424 C 97.7379,66.6113 97.8946,66.9147 98.0929,67.1527 C 98.2912,67.3907 98.5213,67.5672 98.7831,67.6823 C 99.0449,67.7973 99.3265,67.8548 99.628,67.8548 C 100.1754,67.8548 100.6038,67.6823 100.9132,67.3372 C 101.2226,66.9921 101.3773,66.4744 101.3773,65.7842 z
M 99.5685,67.0694 C 99.2274,67.0694 98.9537,66.9266 98.7474,66.641 C 98.5411,66.3554 98.4221,65.9429 98.3904,65.4034 L 100.4729,65.4034 C 100.4808,65.4431 100.4868,65.5006 100.4908,65.576 C 100.4947,65.6513 100.4967,65.7326 100.4967,65.8199 C 100.4967,66.2166 100.4174,66.524 100.2587,66.7422 C 100.1,66.9603 99.87,67.0694 99.5685,67.0694 z
M 145.9401,74 L 145.9401,82.211 L 149.9742,82.211 L 149.9028,81.3899 L 146.9754,81.3899 L 146.9754,78.3554 L 149.6767,78.3554 L 149.6767,77.5343 L 146.9754,77.5343 L 146.9754,74 L 145.9401,74 z
M 154.6271,77.7842 C 154.6271,77.5383 154.6192,77.3261 154.6033,77.1476 C 154.5874,76.9691 154.5716,76.8124 154.5557,76.6775 L 151.6402,76.6775 C 151.6719,76.0032 151.8167,75.5073 152.0746,75.19 C 152.3324,74.8727 152.7033,74.714 153.1872,74.714 C 153.3538,74.714 153.5045,74.7338 153.6394,74.7735 C 153.7743,74.8132 153.8913,74.8608 153.9905,74.9163 C 154.0896,74.9718 154.1729,75.0274 154.2404,75.0829 C 154.3078,75.1384 154.3574,75.1821 154.3891,75.2138 L 154.7461,74.5355 C 154.7064,74.4958 154.6469,74.4383 154.5676,74.363 C 154.4883,74.2876 154.3812,74.2122 154.2463,74.1368 C 154.1114,74.0615 153.9448,73.996 153.7465,73.9405 C 153.5482,73.885 153.3141,73.8572 153.0444,73.8572 C 152.6874,73.8572 152.3641,73.9167 152.0746,74.0357 C 151.785,74.1547 151.5391,74.3392 151.3368,74.5891 C 151.1345,74.839 150.9778,75.1563 150.8667,75.5411 C 150.7556,75.9258 150.7001,76.3879 150.7001,76.9274 C 150.7001,77.4351 150.7576,77.8735 150.8727,78.2424 C 150.9877,78.6113 151.1444,78.9147 151.3427,79.1527 C 151.541,79.3907 151.7711,79.5672 152.0329,79.6823 C 152.2947,79.7973 152.5763,79.8548 152.8778,79.8548 C 153.4252,79.8548 153.8536,79.6823 154.163,79.3372 C 154.4724,78.9921 154.6271,78.4744 154.6271,77.7842 z
M 152.8183,79.0694 C 152.4772,79.0694 152.2035,78.9266 151.9972,78.641 C 151.7909,78.3554 151.6719,77.9429 151.6402,77.4034 L 153.7227,77.4034 C 153.7306,77.4431 153.7366,77.5006 153.7406,77.576 C 153.7445,77.6513 153.7465,77.7326 153.7465,77.8199 C 153.7465,78.2166 153.6672,78.524 153.5085,78.7422 C 153.3498,78.9603 153.1198,79.0694 152.8183,79.0694 z
M 155.6505,76.7727 C 155.6505,77.3518 155.7259,77.8358 155.8766,78.2245 C 156.0273,78.6132 156.2217,78.9266 156.4597,79.1646 C 156.6977,79.4026 156.9674,79.5712 157.2689,79.6704 C 157.5704,79.7695 157.8718,79.8191 158.1733,79.8191 C 158.3558,79.8191 158.5144,79.8052 158.6493,79.7774 C 158.7842,79.7497 158.8952,79.716 158.9825,79.6763 L 158.9825,82.4133 L 159.9464,82.5204 L 159.9464,74 L 159.0658,74 L 159.0658,74.6069 L 159.042,74.6069 C 159.0182,74.5593 158.9746,74.4939 158.9111,74.4106 C 158.8476,74.3273 158.7604,74.244 158.6493,74.1607 C 158.5382,74.0774 158.3994,74.006 158.2328,73.9464 C 158.0662,73.8869 157.8718,73.8572 157.6497,73.8572 C 157.38,73.8572 157.1241,73.9107 156.8822,74.0179 C 156.6402,74.125 156.428,74.2955 156.2455,74.5296 C 156.063,74.7636 155.9183,75.0651 155.8112,75.434 C 155.7041,75.8029 155.6505,76.2491 155.6505,76.7727 z
M 157.9115,74.714 C 158.0622,74.714 158.1971,74.7338 158.3161,74.7735 C 158.4351,74.8132 158.5382,74.8628 158.6255,74.9223 C 158.7128,74.9818 158.7862,75.0432 158.8457,75.1067 C 158.9052,75.1702 158.9508,75.2257 158.9825,75.2733 L 158.9825,78.7957 C 158.8952,78.8512 158.7941,78.8988 158.6791,78.9385 C 158.564,78.9782 158.4192,78.998 158.2447,78.998 C 158.0226,78.998 157.8143,78.9603 157.62,78.885 C 157.4256,78.8096 157.257,78.6846 157.1142,78.5101 C 156.9714,78.3356 156.8584,78.1095 156.7751,77.8318 C 156.6918,77.5541 156.6501,77.213 156.6501,76.8084 C 156.6501,76.4117 156.6838,76.0805 156.7513,75.8148 C 156.8187,75.549 156.9119,75.3348 157.0309,75.1722 C 157.1499,75.0095 157.2848,74.8925 157.4355,74.8211 C 157.5862,74.7497 157.7449,74.714 157.9115,74.714 z
M 165.0872,77.7842 C 165.0872,77.5383 165.0793,77.3261 165.0634,77.1476 C 165.0475,76.9691 165.0317,76.8124 165.0158,76.6775 L 162.1003,76.6775 C 162.132,76.0032 162.2768,75.5073 162.5347,75.19 C 162.7925,74.8727 163.1634,74.714 163.6473,74.714 C 163.8139,74.714 163.9646,74.7338 164.0995,74.7735 C 164.2344,74.8132 164.3514,74.8608 164.4506,74.9163 C 164.5497,74.9718 164.633,75.0274 164.7005,75.0829 C 164.7679,75.1384 164.8175,75.1821 164.8492,75.2138 L 165.2062,74.5355 C 165.1665,74.4958 165.107,74.4383 165.0277,74.363 C 164.9484,74.2876 164.8413,74.2122 164.7064,74.1368 C 164.5715,74.0615 164.4049,73.996 164.2066,73.9405 C 164.0083,73.885 163.7742,73.8572 163.5045,73.8572 C 163.1475,73.8572 162.8242,73.9167 162.5347,74.0357 C 162.2451,74.1547 161.9992,74.3392 161.7969,74.5891 C 161.5946,74.839 161.4379,75.1563 161.3268,75.5411 C 161.2157,75.9258 161.1602,76.3879 161.1602,76.9274 C 161.1602,77.4351 161.2177,77.8735 161.3328,78.2424 C 161.4478,78.6113 161.6045,78.9147 161.8028,79.1527 C 162.0011,79.3907 162.2312,79.5672 162.493,79.6823 C 162.7548,79.7973 163.0364,79.8548 163.3379,79.8548 C 163.8853,79.8548 164.3137,79.6823 164.6231,79.3372 C 164.9325,78.9921 165.0872,78.4744 165.0872,77.7842 z
M 163.2784,79.0694 C 162.9373,79.0694 162.6636,78.9266 162.4573,78.641 C 162.251,78.3554 162.132,77.9429 162.1003,77.4034 L 164.1828,77.4034 C 164.1907,77.4431 164.1967,77.5006 164.2007,77.576 C 164.2046,77.6513 164.2066,77.7326 164.2066,77.8199 C 164.2066,78.2166 164.1273,78.524 163.9686,78.7422 C 163.8099,78.9603 163.5799,79.0694 163.2784,79.0694 z
M 168.8833,78.8671 C 168.8595,78.883 168.8079,78.9028 168.7286,78.9266 C 168.6493,78.9504 168.5422,78.9623 168.4073,78.9623 C 168.1058,78.9623 167.8698,78.881 167.6993,78.7184 C 167.5287,78.5557 167.4077,78.3792 167.3363,78.1888 L 167.3363,74 L 166.3724,74 L 166.3724,79.712 L 167.253,79.712 L 167.253,78.9385 L 167.2768,78.9385 C 167.3165,79.0496 167.368,79.1587 167.4315,79.2658 C 167.495,79.3729 167.5743,79.4681 167.6695,79.5514 C 167.7647,79.6347 167.8777,79.7001 168.0086,79.7477 C 168.1396,79.7953 168.2962,79.8191 168.4787,79.8191 C 168.6136,79.8191 168.7227,79.8072 168.806,79.7834 C 168.8893,79.7596 168.9547,79.7398 169.0023,79.7239 L 168.8833,78.8671 z
M 169.4426,75.4518 C 169.4426,75.785 169.5061,76.0627 169.633,76.2848 C 169.7599,76.5069 169.9305,76.6874 170.1447,76.8263 C 170.3589,76.9651 170.6108,77.0643 170.9004,77.1238 C 171.1899,77.1833 171.4973,77.213 171.8226,77.213 L 172.1201,77.213 L 172.1201,77.7604 C 172.1201,78.2443 172.0348,78.5775 171.8643,78.76 C 171.6937,78.9425 171.4537,79.0337 171.1443,79.0337 C 170.8587,79.0337 170.6207,78.9722 170.4303,78.8493 C 170.2399,78.7263 170.0892,78.6172 169.9781,78.522 L 169.5735,79.1646 C 169.637,79.2281 169.7183,79.2995 169.8175,79.3788 C 169.9166,79.4581 170.0376,79.5335 170.1804,79.6049 C 170.3232,79.6763 170.4858,79.7358 170.6683,79.7834 C 170.8508,79.831 171.057,79.8548 171.2871,79.8548 C 171.8742,79.8548 172.3184,79.6922 172.6199,79.3669 C 172.9214,79.0416 173.0721,78.518 173.0721,77.7961 L 173.0721,75.19 C 173.0721,74.9441 173.08,74.7041 173.0959,74.4701 C 173.1118,74.236 173.1276,74.0793 173.1435,74 L 172.2272,74 L 172.1915,74.6307 L 172.1677,74.6307 C 172.136,74.5593 172.0884,74.478 172.0249,74.3868 C 171.9614,74.2955 171.8821,74.2122 171.7869,74.1368 C 171.6917,74.0615 171.5767,73.996 171.4418,73.9405 C 171.3069,73.885 171.1483,73.8572 170.9658,73.8572 C 170.7516,73.8572 170.5513,73.8969 170.3649,73.9762 C 170.1784,74.0555 170.0158,74.1666 169.877,74.3094 C 169.7381,74.4522 169.631,74.6208 169.5557,74.8152 C 169.4803,75.0095 169.4426,75.2217 169.4426,75.4518 z
M 171.1681,74.6783 C 171.303,74.6783 171.422,74.6981 171.5251,74.7378 C 171.6282,74.7775 171.7175,74.8251 171.7929,74.8806 C 171.8682,74.9361 171.9317,74.9976 171.9833,75.0651 C 172.0348,75.1325 172.0804,75.19 172.1201,75.2376 L 172.1201,76.499 L 171.8107,76.4871 C 171.3506,76.4712 171.0015,76.3919 170.7635,76.2491 C 170.5255,76.1063 170.4065,75.8762 170.4065,75.5589 C 170.4065,75.2654 170.4739,75.0452 170.6088,74.8985 C 170.7437,74.7517 170.9301,74.6783 171.1681,74.6783 z
M 175.4759,75.3328 C 175.4759,75.0948 175.5096,74.9282 175.5771,74.833 C 175.6445,74.7378 175.7615,74.6902 175.9281,74.6902 C 176.0154,74.6902 176.0888,74.6981 176.1483,74.714 C 176.2078,74.7299 176.2534,74.7457 176.2851,74.7616 L 176.3684,74.0476 C 176.3208,74.0238 176.2335,73.9921 176.1066,73.9524 C 175.9797,73.9127 175.8091,73.8929 175.5949,73.8929 C 175.2696,73.8929 175.0078,73.9921 174.8095,74.1904 C 174.6112,74.3887 174.512,74.7418 174.512,75.2495 L 174.512,82.4133 L 175.4759,82.5204 L 175.4759,75.3328 z
M 185.936,78.1174 C 185.936,77.4034 185.8567,76.7806 185.698,76.2491 C 185.5393,75.7176 185.3192,75.2733 185.0376,74.9163 C 184.7559,74.5593 184.4188,74.2935 184.0261,74.119 C 183.6334,73.9445 183.203,73.8572 182.7349,73.8572 C 182.2589,73.8572 181.8265,73.9445 181.4378,74.119 C 181.0491,74.2935 180.7179,74.5553 180.4442,74.9044 C 180.1704,75.2535 179.9582,75.6938 179.8075,76.2253 C 179.6568,76.7568 179.5814,77.3796 179.5814,78.0936 C 179.5814,78.8076 179.6607,79.4304 179.8194,79.9619 C 179.9781,80.4934 180.1982,80.9377 180.4799,81.2947 C 180.7615,81.6517 181.0987,81.9175 181.4914,82.092 C 181.8841,82.2665 182.3144,82.3538 182.7825,82.3538 C 183.2585,82.3538 183.6909,82.2665 184.0796,82.092 C 184.4683,81.9175 184.7995,81.6557 185.0733,81.3066 C 185.347,80.9575 185.5592,80.5172 185.7099,79.9857 C 185.8606,79.4542 185.936,78.8314 185.936,78.1174 z
M 184.8293,78.1174 C 184.8293,79.2439 184.6449,80.0888 184.276,80.6521 C 183.9071,81.2154 183.4013,81.497 182.7587,81.497 C 182.1161,81.497 181.6104,81.2134 181.2415,80.6462 C 180.8726,80.0789 180.6881,79.24 180.6881,78.1293 C 180.6881,77.0028 180.8726,76.1579 181.2415,75.5946 C 181.6104,75.0313 182.1161,74.7497 182.7587,74.7497 C 183.4013,74.7497 183.9071,75.0333 184.276,75.6006 C 184.6449,76.1678 184.8293,77.0067 184.8293,78.1174 z
M 189.6369,78.9266 L 188.4707,78.9266 L 188.4707,74 L 187.5068,74 L 187.5068,78.9266 L 186.8166,78.9266 L 186.8166,79.5692 L 187.5068,79.7001 L 187.5068,80.8425 C 187.5068,81.1519 187.5504,81.4177 187.6377,81.6398 C 187.725,81.8619 187.84,82.0444 187.9828,82.1872 C 188.1256,82.33 188.2922,82.4331 188.4826,82.4966 C 188.673,82.5601 188.8753,82.5918 189.0895,82.5918 C 189.2958,82.5918 189.4703,82.564 189.6131,82.5085 C 189.7559,82.453 189.8511,82.4093 189.8987,82.3776 L 189.6964,81.5803 C 189.6488,81.612 189.5814,81.6458 189.4941,81.6815 C 189.4068,81.7172 189.2997,81.735 189.1728,81.735 C 188.9427,81.735 188.7682,81.6636 188.6492,81.5208 C 188.5302,81.378 188.4707,81.1162 188.4707,80.7354 L 188.4707,79.712 L 189.7559,79.712 L 189.6369,78.9266 z
M 192.9927,78.9266 L 191.8265,78.9266 L 191.8265,74 L 190.8626,74 L 190.8626,78.9266 L 190.1724,78.9266 L 190.1724,79.5692 L 190.8626,79.7001 L 190.8626,80.8425 C 190.8626,81.1519 190.9062,81.4177 190.9935,81.6398 C 191.0808,81.8619 191.1958,82.0444 191.3386,82.1872 C 191.4814,82.33 191.648,82.4331 191.8384,82.4966 C 192.0288,82.5601 192.2311,82.5918 192.4453,82.5918 C 192.6516,82.5918 192.8261,82.564 192.9689,82.5085 C 193.1117,82.453 193.2069,82.4093 193.2545,82.3776 L 193.0522,81.5803 C 193.0046,81.612 192.9372,81.6458 192.8499,81.6815 C 192.7626,81.7172 192.6555,81.735 192.5286,81.735 C 192.2985,81.735 192.124,81.6636 192.005,81.5208 C 191.886,81.378 191.8265,81.1162 191.8265,80.7354 L 191.8265,79.712 L 193.1117,79.712 L 192.9927,78.9266 z
M 194.9086,74 L 193.9447,74 L 193.9447,79.712 L 194.9086,79.712 L 194.9086,74 z
M 194.4326,81.0924 C 194.2343,81.0924 194.0756,81.1559 193.9566,81.2828 C 193.8376,81.4097 193.7781,81.5763 193.7781,81.7826 C 193.7781,81.9809 193.8376,82.1436 193.9566,82.2705 C 194.0756,82.3974 194.2343,82.4609 194.4326,82.4609 C 194.623,82.4609 194.7777,82.3974 194.8967,82.2705 C 195.0157,82.1436 195.0752,81.9809 195.0752,81.7826 C 195.0752,81.5763 195.0157,81.4097 194.8967,81.2828 C 194.7777,81.1559 194.623,81.0924 194.4326,81.0924 z
M 199.5615,78.6053 C 199.5377,78.6291 199.5,78.6648 199.4485,78.7124 C 199.3969,78.76 199.3314,78.8076 199.2521,78.8552 C 199.1728,78.9028 199.0776,78.9445 198.9665,78.9802 C 198.8554,79.0159 198.7285,79.0337 198.5857,79.0337 C 198.3794,79.0337 198.1871,78.996 198.0086,78.9207 C 197.8301,78.8453 197.6754,78.7243 197.5445,78.5577 C 197.4136,78.3911 197.3104,78.1749 197.2351,77.9092 C 197.1597,77.6434 197.122,77.3201 197.122,76.9393 C 197.122,76.5188 197.1557,76.1658 197.2232,75.8802 C 197.2906,75.5946 197.3838,75.3665 197.5028,75.196 C 197.6218,75.0254 197.7666,74.9024 197.9372,74.8271 C 198.1077,74.7517 198.2961,74.714 198.5024,74.714 C 198.7959,74.714 199.0201,74.7656 199.1748,74.8687 C 199.3295,74.9718 199.4385,75.0551 199.502,75.1186 L 199.8947,74.4522 C 199.855,74.4046 199.7975,74.3471 199.7222,74.2797 C 199.6468,74.2122 199.5496,74.1468 199.4306,74.0833 C 199.3116,74.0198 199.1668,73.9663 198.9963,73.9226 C 198.8257,73.879 198.6293,73.8572 198.4072,73.8572 C 198.0899,73.8572 197.7924,73.9088 197.5147,74.0119 C 197.237,74.115 196.9951,74.2856 196.7888,74.5236 C 196.5825,74.7616 196.4199,75.071 196.3009,75.4518 C 196.1819,75.8326 196.1224,76.3046 196.1224,76.8679 C 196.1224,77.4153 196.1938,77.8794 196.3366,78.2602 C 196.4794,78.641 196.6658,78.9484 196.8959,79.1825 C 197.126,79.4165 197.3818,79.5871 197.6635,79.6942 C 197.9451,79.8013 198.2287,79.8548 198.5143,79.8548 C 198.7285,79.8548 198.9169,79.835 199.0796,79.7953 C 199.2422,79.7556 199.381,79.7061 199.4961,79.6466 C 199.6111,79.5871 199.7063,79.5236 199.7817,79.4562 C 199.857,79.3887 199.9185,79.3312 199.9661,79.2836 L 199.5615,78.6053 z
M 204.5476,77.7842 C 204.5476,77.5383 204.5397,77.3261 204.5238,77.1476 C 204.5079,76.9691 204.4921,76.8124 204.4762,76.6775 L 201.5607,76.6775 C 201.5924,76.0032 201.7372,75.5073 201.9951,75.19 C 202.2529,74.8727 202.6238,74.714 203.1077,74.714 C 203.2743,74.714 203.425,74.7338 203.5599,74.7735 C 203.6948,74.8132 203.8118,74.8608 203.911,74.9163 C 204.0101,74.9718 204.0934,75.0274 204.1609,75.0829 C 204.2283,75.1384 204.2779,75.1821 204.3096,75.2138 L 204.6666,74.5355 C 204.6269,74.4958 204.5674,74.4383 204.4881,74.363 C 204.4088,74.2876 204.3017,74.2122 204.1668,74.1368 C 204.0319,74.0615 203.8653,73.996 203.667,73.9405 C 203.4687,73.885 203.2346,73.8572 202.9649,73.8572 C 202.6079,73.8572 202.2846,73.9167 201.9951,74.0357 C 201.7055,74.1547 201.4596,74.3392 201.2573,74.5891 C 201.055,74.839 200.8983,75.1563 200.7872,75.5411 C 200.6761,75.9258 200.6206,76.3879 200.6206,76.9274 C 200.6206,77.4351 200.6781,77.8735 200.7932,78.2424 C 200.9082,78.6113 201.0649,78.9147 201.2632,79.1527 C 201.4615,79.3907 201.6916,79.5672 201.9534,79.6823 C 202.2152,79.7973 202.4968,79.8548 202.7983,79.8548 C 203.3457,79.8548 203.7741,79.6823 204.0835,79.3372 C 204.3929,78.9921 204.5476,78.4744 204.5476,77.7842 z
M 202.7388,79.0694 C 202.3977,79.0694 202.124,78.9266 201.9177,78.641 C 201.7114,78.3554 201.5924,77.9429 201.5607,77.4034 L 203.6432,77.4034 C 203.6511,77.4431 203.6571,77.5006 203.6611,77.576 C 203.665,77.6513 203.667,77.7326 203.667,77.8199 C 203.667,78.2166 203.5877,78.524 203.429,78.7422 C 203.2703,78.9603 203.0403,79.0694 202.7388,79.0694 z
M 145.476,64.856 C 145.476,65.3796 145.5375,65.8318 145.6605,66.2126 C 145.7834,66.5934 145.95,66.9048 146.1603,67.1467 C 146.3705,67.3887 146.6125,67.5672 146.8862,67.6823 C 147.1599,67.7973 147.4514,67.8548 147.7608,67.8548 C 148.0781,67.8548 148.3717,67.7973 148.6414,67.6823 C 148.9111,67.5672 149.1452,67.3887 149.3435,67.1467 C 149.5418,66.9048 149.6985,66.5934 149.8136,66.2126 C 149.9286,65.8318 149.9861,65.3796 149.9861,64.856 C 149.9861,64.3245 149.9266,63.8683 149.8076,63.4875 C 149.6886,63.1067 149.524,62.7953 149.3138,62.5534 C 149.1035,62.3114 148.8596,62.1349 148.5819,62.0238 C 148.3042,61.9127 148.0107,61.8572 147.7013,61.8572 C 147.384,61.8572 147.0904,61.9127 146.8207,62.0238 C 146.551,62.1349 146.3169,62.3114 146.1186,62.5534 C 145.9203,62.7953 145.7636,63.1047 145.6486,63.4816 C 145.5335,63.8584 145.476,64.3165 145.476,64.856 z
M 148.9865,64.856 C 148.9865,65.6176 148.8754,66.171 148.6533,66.516 C 148.4312,66.8612 148.1218,67.0337 147.7251,67.0337 C 147.3284,67.0337 147.021,66.8612 146.8029,66.516 C 146.5847,66.171 146.4756,65.6176 146.4756,64.856 C 146.4756,64.0944 146.5867,63.547 146.8088,63.2138 C 147.0309,62.8806 147.3403,62.714 147.737,62.714 C 148.1337,62.714 148.4411,62.8806 148.6593,63.2138 C 148.8774,63.547 148.9865,64.0944 148.9865,64.856 z
M 153.5323,66.9266 L 152.3661,66.9266 L 152.3661,62 L 151.4022,62 L 151.4022,66.9266 L 150.712,66.9266 L 150.712,67.5692 L 151.4022,67.7001 L 151.4022,68.8425 C 151.4022,69.1519 151.4458,69.4177 151.5331,69.6398 C 151.6204,69.8619 151.7354,70.0444 151.8782,70.1872 C 152.021,70.33 152.1876,70.4331 152.378,70.4966 C 152.5684,70.5601 152.7707,70.5918 152.9849,70.5918 C 153.1912,70.5918 153.3657,70.564 153.5085,70.5085 C 153.6513,70.453 153.7465,70.4093 153.7941,70.3776 L 153.5918,69.5803 C 153.5442,69.612 153.4768,69.6458 153.3895,69.6815 C 153.3022,69.7172 153.1951,69.735 153.0682,69.735 C 152.8381,69.735 152.6636,69.6636 152.5446,69.5208 C 152.4256,69.378 152.3661,69.1162 152.3661,68.7354 L 152.3661,67.712 L 153.6513,67.712 L 153.5323,66.9266 z
M 158.4708,63.8445 C 158.4708,63.4875 158.4272,63.1841 158.3399,62.9342 C 158.2526,62.6843 158.1317,62.482 157.977,62.3273 C 157.8223,62.1726 157.6338,62.0615 157.4117,61.994 C 157.1896,61.9266 156.9436,61.8929 156.6739,61.8929 C 156.4756,61.8929 156.3169,61.9147 156.1979,61.9583 C 156.0789,62.002 155.9916,62.0397 155.9361,62.0714 L 156.1027,62.9282 C 156.1503,62.8965 156.2158,62.8647 156.2991,62.833 C 156.3824,62.8013 156.4914,62.7854 156.6263,62.7854 C 156.896,62.7854 157.0983,62.8687 157.2332,63.0353 C 157.3681,63.2019 157.4355,63.5073 157.4355,63.9516 L 157.4355,70.211 L 158.4708,70.211 L 158.4708,63.8445 z
M 164.0995,62 L 163.2189,62 L 163.2189,62.6426 L 163.1951,62.6426 C 163.1713,62.595 163.1197,62.5256 163.0404,62.4344 C 162.9611,62.3431 162.8599,62.2559 162.737,62.1726 C 162.614,62.0893 162.4652,62.0159 162.2907,61.9524 C 162.1162,61.8889 161.9218,61.8572 161.7076,61.8572 C 161.4537,61.8572 161.2257,61.8949 161.0234,61.9702 C 160.8211,62.0456 160.6485,62.1666 160.5057,62.3332 C 160.3629,62.4998 160.2538,62.716 160.1785,62.9818 C 160.1031,63.2475 160.0654,63.5748 160.0654,63.9635 L 160.0654,67.712 L 161.0293,67.712 L 161.0293,64.0349 C 161.0293,63.5589 161.1067,63.2198 161.2614,63.0174 C 161.4161,62.8152 161.656,62.714 161.9813,62.714 C 162.259,62.714 162.493,62.7834 162.6834,62.9223 C 162.8738,63.0611 163.0245,63.1979 163.1356,63.3328 L 163.1356,67.712 L 164.0995,67.712 L 164.0995,62 z
M 168.0384,66.5577 C 167.9749,66.6291 167.8599,66.7263 167.6933,66.8493 C 167.5267,66.9722 167.3085,67.0337 167.0388,67.0337 C 166.7849,67.0337 166.5906,66.9742 166.4557,66.8552 C 166.3208,66.7362 166.2534,66.5934 166.2534,66.4268 C 166.2534,66.2126 166.3149,66.0361 166.4379,65.8973 C 166.5608,65.7584 166.7492,65.6097 167.0031,65.451 L 167.3601,65.2368 C 167.7488,65.0067 168.0543,64.7588 168.2764,64.4931 C 168.4985,64.2273 168.6096,63.8842 168.6096,63.4637 C 168.6096,63.0115 168.4529,62.6307 168.1396,62.3213 C 167.8262,62.0119 167.376,61.8572 166.7889,61.8572 C 166.5588,61.8572 166.3565,61.881 166.182,61.9286 C 166.0075,61.9762 165.8547,62.0317 165.7239,62.0952 C 165.593,62.1587 165.4839,62.2281 165.3966,62.3034 C 165.3093,62.3788 165.2379,62.4482 165.1824,62.5117 L 165.6465,63.2733 C 165.6941,63.2257 165.7516,63.1702 165.8191,63.1067 C 165.8865,63.0432 165.9678,62.9818 166.063,62.9223 C 166.1582,62.8628 166.2653,62.8132 166.3843,62.7735 C 166.5033,62.7338 166.6421,62.714 166.8008,62.714 C 167.0864,62.714 167.3046,62.7775 167.4553,62.9044 C 167.606,63.0313 167.6814,63.186 167.6814,63.3685 C 167.6814,63.5034 167.6636,63.6204 167.6279,63.7196 C 167.5922,63.8187 167.5386,63.908 167.4672,63.9873 C 167.3958,64.0666 167.3085,64.142 167.2054,64.2134 C 167.1023,64.2848 166.9833,64.3641 166.8484,64.4514 L 166.4914,64.6775 C 166.1344,64.9076 165.8547,65.1495 165.6525,65.4034 C 165.4502,65.6573 165.349,65.9825 165.349,66.3792 C 165.349,66.5934 165.3907,66.7898 165.474,66.9683 C 165.5573,67.1467 165.6743,67.3014 165.825,67.4324 C 165.9757,67.5633 166.1523,67.6664 166.3546,67.7418 C 166.5569,67.8171 166.773,67.8548 167.0031,67.8548 C 167.2252,67.8548 167.4156,67.833 167.5743,67.7894 C 167.733,67.7457 167.8698,67.6902 167.9849,67.6228 C 168.0999,67.5553 168.1951,67.4879 168.2705,67.4205 C 168.3458,67.353 168.4073,67.2955 168.4549,67.2479 L 168.0384,66.5577 z
M 172.1796,66.9266 L 170.9301,66.9266 L 170.9301,63.7612 C 170.9301,63.3566 170.9817,63.0809 171.0848,62.9342 C 171.1879,62.7874 171.3625,62.714 171.6084,62.714 C 171.7512,62.714 171.8742,62.7338 171.9773,62.7735 C 172.0804,62.8132 172.1558,62.8489 172.2034,62.8806 L 172.3343,62.1071 C 172.2946,62.0754 172.1994,62.0258 172.0487,61.9583 C 171.898,61.8909 171.6957,61.8572 171.4418,61.8572 C 170.9499,61.8572 170.581,61.994 170.3351,62.2678 C 170.0892,62.5414 169.9662,62.9956 169.9662,63.6303 L 169.9662,66.9266 L 169.276,66.9266 L 169.276,67.5692 L 169.9662,67.712 L 170.0733,69.3066 L 170.9301,69.3066 L 170.9301,67.712 L 172.2986,67.712 L 172.1796,66.9266 z
M 174.2383,62 L 173.2744,62 L 173.2744,67.712 L 174.2383,67.712 L 174.2383,62 z
M 173.7623,69.0924 C 173.564,69.0924 173.4053,69.1559 173.2863,69.2828 C 173.1673,69.4097 173.1078,69.5763 173.1078,69.7826 C 173.1078,69.9809 173.1673,70.1436 173.2863,70.2705 C 173.4053,70.3974 173.564,70.4609 173.7623,70.4609 C 173.9527,70.4609 174.1074,70.3974 174.2264,70.2705 C 174.3454,70.1436 174.4049,69.9809 174.4049,69.7826 C 174.4049,69.5763 174.3454,69.4097 174.2264,69.2828 C 174.1074,69.1559 173.9527,69.0924 173.7623,69.0924 z
M 178.8912,66.6053 C 178.8674,66.6291 178.8297,66.6648 178.7782,66.7124 C 178.7266,66.76 178.6611,66.8076 178.5818,66.8552 C 178.5025,66.9028 178.4073,66.9445 178.2962,66.9802 C 178.1851,67.0159 178.0582,67.0337 177.9154,67.0337 C 177.7091,67.0337 177.5168,66.996 177.3383,66.9207 C 177.1598,66.8453 177.0051,66.7243 176.8742,66.5577 C 176.7433,66.3911 176.6401,66.1749 176.5648,65.9092 C 176.4894,65.6434 176.4517,65.3201 176.4517,64.9393 C 176.4517,64.5188 176.4854,64.1658 176.5529,63.8802 C 176.6203,63.5946 176.7135,63.3665 176.8325,63.196 C 176.9515,63.0254 177.0963,62.9024 177.2669,62.8271 C 177.4374,62.7517 177.6258,62.714 177.8321,62.714 C 178.1256,62.714 178.3498,62.7656 178.5045,62.8687 C 178.6592,62.9718 178.7682,63.0551 178.8317,63.1186 L 179.2244,62.4522 C 179.1847,62.4046 179.1272,62.3471 179.0519,62.2797 C 178.9765,62.2122 178.8793,62.1468 178.7603,62.0833 C 178.6413,62.0198 178.4965,61.9663 178.326,61.9226 C 178.1554,61.879 177.959,61.8572 177.7369,61.8572 C 177.4196,61.8572 177.1221,61.9088 176.8444,62.0119 C 176.5667,62.115 176.3248,62.2856 176.1185,62.5236 C 175.9122,62.7616 175.7496,63.071 175.6306,63.4518 C 175.5116,63.8326 175.4521,64.3046 175.4521,64.8679 C 175.4521,65.4153 175.5235,65.8794 175.6663,66.2602 C 175.8091,66.641 175.9955,66.9484 176.2256,67.1825 C 176.4557,67.4165 176.7115,67.5871 176.9932,67.6942 C 177.2748,67.8013 177.5584,67.8548 177.844,67.8548 C 178.0582,67.8548 178.2466,67.835 178.4093,67.7953 C 178.5719,67.7556 178.7107,67.7061 178.8258,67.6466 C 178.9408,67.5871 179.036,67.5236 179.1114,67.4562 C 179.1867,67.3887 179.2482,67.3312 179.2958,67.2836 L 178.8912,66.6053 z
M 183.8773,65.7842 C 183.8773,65.5383 183.8694,65.3261 183.8535,65.1476 C 183.8376,64.9691 183.8218,64.8124 183.8059,64.6775 L 180.8904,64.6775 C 180.9221,64.0032 181.0669,63.5073 181.3248,63.19 C 181.5826,62.8727 181.9535,62.714 182.4374,62.714 C 182.604,62.714 182.7547,62.7338 182.8896,62.7735 C 183.0245,62.8132 183.1415,62.8608 183.2407,62.9163 C 183.3398,62.9718 183.4231,63.0274 183.4906,63.0829 C 183.558,63.1384 183.6076,63.1821 183.6393,63.2138 L 183.9963,62.5355 C 183.9566,62.4958 183.8971,62.4383 183.8178,62.363 C 183.7385,62.2876 183.6314,62.2122 183.4965,62.1368 C 183.3616,62.0615 183.195,61.996 182.9967,61.9405 C 182.7984,61.885 182.5643,61.8572 182.2946,61.8572 C 181.9376,61.8572 181.6143,61.9167 181.3248,62.0357 C 181.0352,62.1547 180.7893,62.3392 180.587,62.5891 C 180.3847,62.839 180.228,63.1563 180.1169,63.5411 C 180.0058,63.9258 179.9503,64.3879 179.9503,64.9274 C 179.9503,65.4351 180.0078,65.8735 180.1229,66.2424 C 180.2379,66.6113 180.3946,66.9147 180.5929,67.1527 C 180.7912,67.3907 181.0213,67.5672 181.2831,67.6823 C 181.5449,67.7973 181.8265,67.8548 182.128,67.8548 C 182.6754,67.8548 183.1038,67.6823 183.4132,67.3372 C 183.7226,66.9921 183.8773,66.4744 183.8773,65.7842 z
M 182.0685,67.0694 C 181.7274,67.0694 181.4537,66.9266 181.2474,66.641 C 181.0411,66.3554 180.9221,65.9429 180.8904,65.4034 L 182.9729,65.4034 C 182.9808,65.4431 182.9868,65.5006 182.9908,65.576 C 182.9947,65.6513 182.9967,65.7326 182.9967,65.8199 C 182.9967,66.2166 182.9174,66.524 182.7587,66.7422 C 182.6,66.9603 182.37,67.0694 182.0685,67.0694 z
" fill="#000000"/>
  </g>
  <g id="Adler-und-Saeulenelement">
    <path d="M37.173,29.339 C37.2,29.115 37.216,28.884 37.216,28.648 C37.216,28.519 37.217,28.369 37.201,28.199 C39.194,28.171 40.942,26.735 40.942,25.084 C40.942,24.244 40.394,23.61 40.085,23.231 C40.154,23.216 40.224,23.2 40.295,23.183 C40.587,23.437 41.415,24.339 41.415,25.478 C41.415,27.459 39.435,29.298 37.173,29.339 M35.165,22.44 C35.128,22.219 35.044,22.019 34.916,21.847 C34.923,21.645 35.006,21.452 35.331,21.611 C35.155,21.791 35.291,22.11 35.291,22.11 C35.291,22.11 35.651,21.943 35.576,21.705 C36.11,21.833 35.726,22.55 35.165,22.44 M34.702,23.457 C34.631,23.161 34.479,22.857 34.286,22.628 C34.11,22.42 33.819,22.173 33.427,22.173 C33.248,22.173 32.948,22.257 32.757,22.338 C32.686,22.208 32.547,21.895 32.547,21.754 C32.547,21.609 32.792,21.462 33.261,21.462 C34.293,21.462 34.909,21.928 34.909,22.71 C34.909,22.985 34.8,23.235 34.702,23.457 M37.352,36.757 C37.472,36.757 37.53,36.776 37.6,36.802 C37.897,37.61 39.042,39.135 39.09,39.2 L39.1,39.214 L39.117,39.21 C39.398,39.165 40.115,39.057 40.715,39.057 L40.729,39.057 C40.794,39.057 40.868,39.057 40.915,39.103 C40.954,39.142 40.973,39.21 40.973,39.307 C40.973,39.456 40.91,39.711 40.834,39.82 C40.624,39.591 40.283,39.488 39.737,39.488 C39.573,39.488 39.379,39.537 39.274,39.565 L39.231,39.574 L39.182,39.587 L39.497,39.902 C39.983,40.388 40.403,40.807 40.403,41.086 C40.403,41.254 40.239,41.473 40.089,41.57 C40.056,41.059 39.54,40.375 39.037,39.992 L38.994,39.96 L38.986,40.14 C38.979,40.262 38.968,40.445 38.968,40.641 C38.968,41.614 38.869,41.762 38.532,41.762 C38.48,41.762 38.401,41.747 38.352,41.729 C38.542,41.494 38.617,41.184 38.617,40.64 L38.614,40.389 L38.611,40.187 C38.611,39.964 38.634,39.799 38.652,39.666 L38.662,39.591 L38.609,39.584 C38.451,39.562 38.158,39.522 37.934,39.522 C37.453,39.522 37.127,39.566 36.891,39.788 C36.735,39.662 36.575,39.445 36.575,39.308 C36.575,39.105 36.701,39.089 36.867,39.089 C36.951,39.089 37.029,39.101 37.137,39.114 C37.344,39.145 37.655,39.191 38.296,39.191 L38.336,39.191 L38.323,39.152 C38.161,38.687 37.715,38.011 37,37.142 C37.064,36.909 37.127,36.757 37.352,36.757 M31.178,39.152 L31.165,39.191 L31.205,39.191 C31.845,39.191 32.157,39.145 32.364,39.114 C32.472,39.101 32.55,39.089 32.634,39.089 C32.799,39.089 32.926,39.105 32.926,39.308 C32.926,39.445 32.766,39.662 32.611,39.788 C32.374,39.566 32.048,39.522 31.568,39.522 C31.343,39.522 31.049,39.562 30.892,39.584 L30.867,39.587 L30.839,39.591 L30.848,39.666 C30.867,39.799 30.89,39.964 30.89,40.187 L30.887,40.389 L30.884,40.64 C30.884,41.184 30.959,41.494 31.15,41.729 C31.1,41.747 31.021,41.762 30.969,41.762 C30.631,41.762 30.533,41.614 30.533,40.641 C30.533,40.445 30.523,40.262 30.516,40.14 L30.506,39.959 L30.464,39.992 C29.962,40.375 29.444,41.059 29.413,41.57 C29.262,41.473 29.098,41.254 29.098,41.086 C29.098,40.807 29.518,40.388 30.004,39.902 L30.283,39.623 L30.319,39.587 L30.227,39.565 C30.122,39.537 29.928,39.488 29.763,39.488 C29.218,39.488 28.878,39.591 28.667,39.82 C28.591,39.711 28.528,39.456 28.528,39.307 C28.528,39.21 28.547,39.142 28.586,39.103 C28.633,39.057 28.707,39.057 28.772,39.057 L28.786,39.057 C29.386,39.057 30.104,39.165 30.384,39.21 L30.401,39.214 L30.411,39.2 C30.46,39.135 31.604,37.61 31.902,36.802 C31.97,36.776 32.029,36.757 32.149,36.757 C32.374,36.757 32.437,36.909 32.502,37.142 C31.786,38.011 31.34,38.687 31.178,39.152 M28.086,25.478 C28.086,24.339 28.915,23.437 29.207,23.183 C29.277,23.2 29.347,23.216 29.417,23.231 C29.107,23.61 28.559,24.244 28.559,25.084 C28.559,26.752 30.341,28.2 32.359,28.2 C32.346,28.343 32.339,28.493 32.339,28.648 C32.339,28.894 32.353,29.123 32.377,29.339 C30.095,29.325 28.086,27.473 28.086,25.478 M43.392,28.991 C44.416,30.61 45.217,30.583 46.427,30.583 C45.426,29.816 44.764,28.833 44.448,28.331 L42.578,25.339 C42.396,24.415 41.918,23.551 41.202,22.908 C41.443,22.817 41.643,22.721 41.763,22.63 C40.542,22.63 39.332,22.01 38.666,22.01 C38.238,22.01 37.963,22.266 37.963,22.604 C37.99,22.981 38.378,23.364 39.095,23.364 C39.257,23.364 39.465,23.343 39.693,23.305 C40.081,23.846 40.394,24.335 40.394,25.033 C40.394,26.343 38.828,27.364 37.247,27.364 C37.157,27.364 37.072,27.36 36.983,27.354 C36.84,27.029 36.363,26.484 36.363,25.864 C36.363,24.823 37.042,23.973 37.042,22.942 C37.042,22.301 36.73,21.904 36.61,21.739 C36.804,21.559 37.016,21.338 37.066,21.186 C36.953,21.235 36.819,21.241 36.624,21.241 C35.866,21.241 35.248,21.044 34.646,21.044 C34.302,21.044 34.21,21.15 34.21,21.251 C34.21,21.288 34.215,21.326 34.225,21.344 C34.097,21.294 33.977,21.261 33.834,21.235 C33.656,21.201 33.465,21.184 33.261,21.184 C32.529,21.184 32.269,21.491 32.269,21.754 C32.269,21.976 32.444,22.382 32.643,22.692 C32.928,22.548 33.271,22.451 33.427,22.451 C33.816,22.451 34.161,22.821 34.344,23.259 C34.083,23.291 34.033,23.302 33.769,23.302 C33.056,23.302 32.571,23.047 32.471,23.047 C32.462,23.047 32.443,23.052 32.443,23.068 C32.443,23.168 32.645,23.432 33.043,23.577 C33.568,23.769 34.354,23.849 34.485,23.871 C34.485,23.894 34.352,24.142 34.203,24.19 C34.172,24.2 34.147,24.201 34.11,24.193 C33.562,24.085 33.409,24.039 32.714,23.775 C32.693,23.767 32.68,23.78 32.68,23.802 C32.68,24.077 33.392,24.684 34.03,24.917 C33.497,25.597 32.832,26.293 32.518,27.354 C32.429,27.36 32.343,27.364 32.254,27.364 C30.673,27.364 29.107,26.343 29.107,25.033 C29.107,24.335 29.42,23.846 29.808,23.305 C30.036,23.343 30.243,23.364 30.406,23.364 C31.123,23.364 31.511,22.981 31.539,22.604 C31.539,22.266 31.264,22.01 30.835,22.01 C30.169,22.01 28.96,22.63 27.737,22.63 C27.858,22.721 28.058,22.817 28.298,22.908 C27.583,23.551 27.105,24.415 26.923,25.339 L25.053,28.331 C24.738,28.833 24.074,29.816 23.073,30.583 C24.283,30.583 25.085,30.61 26.109,28.991 L27.068,27.457 C27.139,27.656 27.226,27.85 27.329,28.04 L25.422,31.091 C25.105,31.597 24.447,32.571 23.442,33.343 C24.652,33.343 25.454,33.371 26.478,31.753 L28.119,29.125 C28.242,29.256 28.371,29.384 28.507,29.506 L26.191,33.214 C25.873,33.721 25.219,34.693 24.212,35.464 C25.422,35.464 26.224,35.493 27.247,33.874 L29.505,30.259 C29.654,30.353 29.806,30.444 29.964,30.53 L27.207,34.941 C26.889,35.448 26.235,36.417 25.228,37.191 C26.438,37.191 27.24,37.219 28.264,35.601 L31.102,31.058 C31.27,31.122 31.44,31.184 31.613,31.239 L28.406,36.372 C28.093,36.872 27.424,37.859 26.428,38.622 C27.637,38.622 28.44,38.65 29.463,37.032 L32.881,31.562 C32.916,31.568 32.95,31.573 32.984,31.58 C33.077,31.876 33.142,32.152 33.142,32.427 C33.142,34.146 32.014,35.664 30.66,36.836 C30.747,36.874 30.898,36.887 31.037,36.887 C31.317,36.887 31.497,36.872 31.624,36.85 C31.31,37.563 30.636,38.484 30.296,38.96 C29.853,38.88 29.208,38.818 28.786,38.818 C28.344,38.818 28.294,39.076 28.294,39.307 C28.294,39.708 28.482,40.027 28.7,40.205 C28.782,40 28.947,39.726 29.763,39.726 C29.779,39.726 29.807,39.728 29.845,39.731 C29.607,39.996 28.86,40.6 28.86,41.086 C28.86,41.408 29.213,41.891 29.678,41.891 C29.651,41.787 29.654,41.692 29.654,41.62 C29.654,41.226 30.003,40.765 30.298,40.443 C30.289,40.539 30.294,40.529 30.294,40.641 C30.294,41.572 30.378,42 30.969,42 C31.259,42 31.459,41.841 31.528,41.793 C31.144,41.44 31.124,41.162 31.124,40.64 C31.125,40.504 31.126,40.371 31.128,40.188 C31.129,40.068 31.127,39.91 31.108,39.796 C31.319,39.767 31.405,39.767 31.568,39.767 C31.568,39.767 32.407,39.7 32.61,40.137 C32.838,39.928 33.169,39.633 33.169,39.308 C33.169,39.093 33.067,38.85 32.634,38.85 C32.47,38.85 31.955,38.95 31.524,38.95 C31.64,38.693 32.155,37.939 32.602,37.392 C32.67,37.604 32.775,37.833 33.009,38.021 C33.042,37.669 33.248,36.556 33.798,35.905 C33.862,36.345 33.948,36.796 33.948,37.747 C33.948,40.061 33.392,41.77 32.211,42.096 C32.365,42.363 32.69,42.604 33.027,42.604 C33.459,42.604 33.694,42.115 33.934,41.654 C34.059,41.994 34.404,42.828 34.75,42.828 C35.096,42.828 35.442,41.994 35.567,41.654 C35.806,42.115 36.042,42.604 36.474,42.604 C36.811,42.604 37.136,42.363 37.29,42.096 C36.109,41.77 35.552,40.061 35.552,37.747 C35.552,36.796 35.638,36.345 35.702,35.905 C36.253,36.556 36.46,37.669 36.491,38.021 C36.726,37.833 36.832,37.604 36.899,37.392 C37.345,37.939 37.861,38.693 37.977,38.95 C37.546,38.95 37.03,38.85 36.867,38.85 C36.435,38.85 36.333,39.093 36.333,39.308 C36.333,39.633 36.664,39.928 36.892,40.137 C37.093,39.7 37.934,39.767 37.934,39.767 C38.096,39.767 38.182,39.767 38.394,39.796 C38.374,39.91 38.373,40.068 38.374,40.188 C38.376,40.371 38.376,40.504 38.377,40.64 C38.377,41.162 38.357,41.44 37.973,41.793 C38.042,41.841 38.242,42 38.532,42 C39.123,42 39.208,41.572 39.208,40.641 C39.208,40.529 39.211,40.539 39.203,40.443 C39.498,40.765 39.847,41.226 39.847,41.62 C39.847,41.692 39.851,41.787 39.822,41.891 C40.288,41.891 40.642,41.408 40.642,41.086 C40.642,40.6 39.895,39.996 39.655,39.731 C39.694,39.728 39.722,39.726 39.737,39.726 C40.554,39.726 40.719,40 40.801,40.205 C41.019,40.027 41.207,39.708 41.207,39.307 C41.207,39.076 41.157,38.818 40.715,38.818 C40.293,38.818 39.649,38.88 39.205,38.96 C38.864,38.484 38.192,37.563 37.877,36.85 C38.004,36.872 38.185,36.887 38.464,36.887 C38.604,36.887 38.754,36.874 38.841,36.836 C37.487,35.664 36.359,34.146 36.359,32.427 C36.359,32.152 36.424,31.876 36.517,31.58 C36.55,31.573 36.586,31.568 36.62,31.562 L40.038,37.032 C41.061,38.65 41.864,38.622 43.073,38.622 C42.077,37.859 41.408,36.872 41.095,36.372 L37.887,31.239 C38.061,31.184 38.232,31.122 38.4,31.058 L41.237,35.601 C42.261,37.219 43.063,37.191 44.273,37.191 C43.266,36.417 42.612,35.448 42.294,34.941 L39.538,30.53 C39.694,30.444 39.847,30.353 39.995,30.259 L42.254,33.874 C43.278,35.493 44.079,35.464 45.289,35.464 C44.282,34.693 43.629,33.721 43.31,33.214 L40.994,29.506 C41.13,29.384 41.26,29.256 41.381,29.125 L43.024,31.753 C44.047,33.371 44.849,33.343 46.059,33.343 C45.053,32.571 44.397,31.597 44.079,31.091 L42.173,28.04 C42.275,27.85 42.362,27.656 42.434,27.457 z" fill="#000000"/>
    <path d="M56,42 L52.5,42 L52.5,22 L56,22 z" fill="#000000"/>
    <path d="M56,62 L52.5,62 L52.5,42 L56,42 z" fill="#FF0000"/>
    <path d="M56,82 L52.5,82 L52.5,62 L56,62 z" fill="#FFCC00"/>
  </g>
</svg>
